<?xml version="1.0" encoding="UTF-8"?>
<svg version="1.1" xmlns="http://www.w3.org/2000/svg" width="135" height="108">
<path d="M0 0 C7.13223113 2.01457098 11.76463617 8.49107683 16.4296875 13.96875 C21.45064514 12.12957138 25.75980666 9.42068702 30.296875 6.625 C41.0637373 0.9327935 55.81925888 0.51469023 67.4296875 3.96875 C75.03193489 6.5513781 81.32855153 9.7691989 87.4296875 14.96875 C88.16960937 15.54238281 88.90953125 16.11601562 89.671875 16.70703125 C97.47473053 23.05177741 103.73705389 31.86791129 105.4296875 41.96875 C105.78716894 46.51291069 105.84548875 51.03701212 105.8671875 55.59375 C105.90005859 56.78871094 105.93292969 57.98367187 105.96679688 59.21484375 C106.04267198 71.94806651 102.20601302 82.66218814 93.4296875 91.96875 C82.0398548 103.47722679 68.59850191 109.30101744 52.4296875 109.46875 C40.54853916 109.33439309 31.07508424 106.9107259 21.55078125 99.5546875 C19.57398937 98.07664421 17.66781 96.99392176 15.4296875 95.96875 C14.68203125 96.73960938 13.934375 97.51046875 13.1640625 98.3046875 C12.16954099 99.31797356 11.17473427 100.33097975 10.1796875 101.34375 C9.68855469 101.85164063 9.19742188 102.35953125 8.69140625 102.8828125 C4.85680402 106.76854276 2.41883598 108.75175198 -3.0078125 109.34375 C-6.5703125 108.96875 -6.5703125 108.96875 -9.5078125 107.59375 C-12.2026299 104.1639824 -12.40432661 101.85342453 -12.18359375 97.55859375 C-10.89414709 92.11335084 -6.65095402 88.69226649 -2.4765625 85.234375 C-0.53297476 83.55301735 1.04583026 82.13816317 2.4296875 79.96875 C2.46926835 76.69484826 1.51011399 74.02635697 0.4296875 70.96875 C-2.55945244 59.80522736 -1.95231556 45.80425197 2.65234375 35.24609375 C3.57005455 32.55752391 3.36803621 31.60999298 2.4296875 28.96875 C1.15471916 27.30022065 1.15471916 27.30022065 -0.4765625 25.8046875 C-1.05535156 25.24007813 -1.63414063 24.67546875 -2.23046875 24.09375 C-2.83761719 23.51625 -3.44476563 22.93875 -4.0703125 22.34375 C-5.27031691 21.18705785 -6.46833224 20.02829751 -7.6640625 18.8671875 C-8.19708984 18.35849121 -8.73011719 17.84979492 -9.27929688 17.32568359 C-11.76770588 14.71021891 -11.75873094 12.52600347 -11.8203125 9.03125 C-11.84609375 8.15597656 -11.871875 7.28070312 -11.8984375 6.37890625 C-11.5703125 3.96875 -11.5703125 3.96875 -10.390625 2.21484375 C-7.06638311 -0.0607639 -3.94378237 -0.03857 0 0 Z " fill="#947F7C" transform="translate(27.5703125,-0.96875)"/>
<path d="M0 0 C6.73205748 4.81529112 12.26850245 10.37569883 14.25 18.609375 C15.51478284 28.88422984 14.03502908 36.41555563 7.7109375 44.6015625 C2.48584872 50.37144727 -3.61517477 54.14602746 -11.41015625 55.01953125 C-19.9498973 55.2161419 -27.00716915 54.4324886 -34.375 50.046875 C-41.15794005 43.08543653 -45.99960949 35.79165319 -46.1875 25.921875 C-46.02619885 16.84156886 -43.11149364 10.93530616 -37.125 4.234375 C-27.26806488 -4.85018834 -11.63980016 -6.8154093 0 0 Z " fill="#FDFCFC" transform="translate(95.75,28.390625)"/>
<path d="M0 0 C2 2 2 2 2.375 4.375 C2 7 2 7 0.3125 9.3125 C-2 11 -2 11 -4.5625 11.5 C-7 11 -7 11 -8.8125 9.3125 C-10.21992268 6.57172952 -10.46773289 5.04026376 -10 2 C-7.59255596 -2.24843066 -4.22911647 -0.99960935 0 0 Z " fill="#584541" transform="translate(99,50)"/>
<path d="M0 0 C-4.75 4 -4.75 4 -7 4 C-7.33 5.32 -7.66 6.64 -8 8 C-8.36075949 3.55063291 -8.36075949 3.55063291 -6.8125 1.1875 C-4.44017475 -0.36678206 -2.77958655 -0.22537188 0 0 Z " fill="#72635F" transform="translate(97,49)"/>
</svg>
